G04 Layer: TopLayer*
G04 EasyEDA Pro v2.2.47.7, 2026-10-04 13:33:00*
G04 Gerber Generator version 0.3*
G04 Scale: 100 percent, Rotated: No, Reflected: No*
G04 Dimensions in millimeters*
G04 Leading zeros omitted, absolute positions, 4 integers and 5 decimals*
G04 Generated by one-click*
G04 Object Configs: Pad,Via,Track,Text,Image,Dimension,BoardOutline,BoardCutout,CopperFilled,SolidRegion,FPCStiffener,Line,PlaneZone,ComponentProperty,ComponentSilkscreen,TearDrop*
G04 Layer Configs: 1,2,3,4,5,6,7,8,9,10,11,13,14,56*
G04 Copper Areas: 0*
%FSLAX45Y45*%
%MOMM*%
%ADD10C,1.524*%
%ADD11C,1.1*%
%ADD12O,2.49999X2.0*%
%ADD13R,2.49999X2.0*%
%ADD14C,1.6*%
%ADD15R,1.5X1.0*%
%ADD16R,1.0X1.5*%
%ADD17C,1.8*%
%ADD18R,1.8045X1.8*%
%ADD19R,1.8X1.8*%
%ADD20R,2.49999X1.1*%
%ADD21R,2.34X3.59999*%
%ADD22C,1.2*%
%ADD23R,1.6X1.6*%
%ADD24R,1.0X3.49999*%
%ADD25R,1.5X3.39999*%
%ADD26C,0.61*%
%ADD27C,0.254*%
G75*


G04 Pad Start*
G54D10*
G01X1206500Y-6934200D03*
G01X1016000Y-6934200D03*
G01X1674696Y-5862704D03*
G01X1678104Y-6862696D03*
G54D11*
G01X1004900Y-6057900D03*
G01X1204900Y-6057900D03*
G01X1219200Y-3811600D03*
G01X1219200Y-4011600D03*
G54D12*
G01X3860800Y-6426200D03*
G01X3860800Y-6172200D03*
G54D13*
G01X3860800Y-6680200D03*
G54D14*
G01X1358900Y-3124505D03*
G01X1358900Y-1574495D03*
G01X1841195Y-7175500D03*
G01X3391205Y-7175500D03*
G01X3353105Y-6197600D03*
G01X1803095Y-6197600D03*
G01X2387600Y-3124505D03*
G01X2387600Y-1574495D03*
G01X2882900Y-3124505D03*
G01X2882900Y-1574495D03*
G01X3378200Y-3124505D03*
G01X3378200Y-1574495D03*
G01X3822700Y-4063695D03*
G01X3822700Y-5613705D03*
G01X1879600Y-3124505D03*
G01X1879600Y-1574495D03*
G54D15*
G01X1818752Y-4182847D03*
G01X1818752Y-4382846D03*
G01X1818752Y-4582846D03*
G01X1818752Y-4782845D03*
G01X1818752Y-4982845D03*
G01X1818752Y-5182845D03*
G01X1818752Y-5382844D03*
G01X1818752Y-5582844D03*
G54D16*
G01X2093758Y-5732856D03*
G01X2293757Y-5732856D03*
G01X2493757Y-5732856D03*
G01X2693756Y-5732856D03*
G01X2893756Y-5732856D03*
G01X3093756Y-5732856D03*
G54D15*
G01X3368761Y-5582844D03*
G01X3368761Y-5382844D03*
G01X3368761Y-5182845D03*
G01X3368761Y-4982845D03*
G01X3368761Y-4782845D03*
G01X3368761Y-4582846D03*
G01X3368761Y-4382846D03*
G01X3368761Y-4182847D03*
G54D17*
G01X4572000Y-5676900D03*
G54D19*
G01X4572000Y-5422900D03*
G54D14*
G01X4060698Y-2313800D03*
G01X4600702Y-2313800D03*
G01X4060698Y-2613800D03*
G01X4600702Y-2613800D03*
G01X4600702Y-1902600D03*
G01X4060698Y-1902600D03*
G01X4600702Y-1602600D03*
G01X4060698Y-1602600D03*
G54D20*
G01X960305Y-5104003D03*
G01X960305Y-5334000D03*
G01X960305Y-5563997D03*
G54D21*
G01X1554297Y-5334000D03*
G54D22*
G01X969201Y-4409694D03*
G01X1469200Y-4759706D03*
G54D17*
G01X4686300Y-3104794D03*
G01X4686297Y-3354807D03*
G01X4686300Y-3604793D03*
G54D19*
G01X4686300Y-3854806D03*
G54D14*
G01X4114803Y-2959105D03*
G01X4114803Y-3213105D03*
G01X4114803Y-3467105D03*
G01X4114803Y-3721105D03*
G54D23*
G01X4114803Y-3975105D03*
G54D24*
G01X1217597Y-6644000D03*
G01X1017598Y-6644000D03*
G54D25*
G01X782599Y-7199000D03*
G01X1452598Y-7199000D03*
G04 Pad End*

G04 Via Start*
G54D26*
G01X3660861Y-4379646D03*
G01X4102758Y-4205046D03*
G04 Via End*

G04 Track Start*
G54D27*
G01X3378200Y-3124505D02*
G01X3251200Y-3251505D01*
G01X3251200Y-4865284D01*
G01X3368761Y-4982845D01*
G01X4131945Y-4982845D01*
G01X4572000Y-5422900D01*
G01X2387600Y-3124505D02*
G01X2387600Y-4013998D01*
G01X1818752Y-4582846D01*
G01X2882900Y-3124505D02*
G01X2882900Y-4696983D01*
G01X3368761Y-5182845D01*
G01X1879600Y-3124505D02*
G01X1879600Y-4121998D01*
G01X1818752Y-4182847D01*
G01X1490797Y-5537200D02*
G01X1773108Y-5537200D01*
G01X1818752Y-5582844D01*
G01X969201Y-4261599D02*
G01X1219200Y-4011600D01*
G01X3368761Y-4182847D02*
G01X3368761Y-4055847D01*
G01X4073815Y-3350793D01*
G01X4432300Y-3350793D01*
G01X4686300Y-3604793D01*
G01X4101803Y-2972105D02*
G01X4114803Y-2959105D01*
G01X3860800Y-6426200D02*
G01X4013200Y-6426200D01*
G01X4699000Y-5740400D01*
G01X4699000Y-3867506D01*
G01X4686300Y-3854806D01*
G01X1358900Y-3124505D02*
G01X1587500Y-3353105D01*
G01X1587500Y-4151594D01*
G01X1818752Y-4382846D01*
G01X1587500Y-3353105D02*
G01X1587500Y-3187700D01*
G01X1803095Y-2972105D01*
G01X4101803Y-2972105D01*
G01X3822700Y-4050995D02*
G01X3848405Y-4050995D01*
G01X3911600Y-3987800D01*
G01X4102108Y-3987800D01*
G01X4114803Y-3975105D01*
G01X3822700Y-5601005D02*
G01X3784732Y-5563037D01*
G01X3548954Y-5563037D01*
G01X3368761Y-5382844D01*
G01X3368761Y-4370146D02*
G01X3368761Y-4382846D01*
G01X4330700Y-3683003D02*
G01X4114803Y-3467105D01*
G01X3368761Y-4782845D02*
G01X3754266Y-4782845D01*
G01X4330700Y-4206411D01*
G01X4330700Y-3683003D01*
G01X3368761Y-4582846D02*
G01X3457661Y-4582846D01*
G01X3660861Y-4379646D01*
G01X969201Y-4409694D02*
G01X969201Y-4261599D01*
G01X1465397Y-5511800D02*
G01X1490797Y-5537200D01*
G01X1554297Y-5334000D02*
G01X1554297Y-4844804D01*
G01X1469200Y-4759706D01*
G01X1469200Y-4061600D01*
G01X1219200Y-3811600D01*
G01X1219200Y-1714195D01*
G01X1358900Y-1574495D01*
G01X1879600Y-1574495D02*
G01X1358900Y-1574495D01*
G01X1879600Y-1574495D02*
G01X2387600Y-1574495D01*
G01X2882900Y-1574495D01*
G01X3378200Y-1574495D01*
G01X3378505Y-1574495D01*
G01X3517900Y-1435100D01*
G01X4711700Y-1435100D01*
G01X4845050Y-1568450D01*
G01X4845050Y-2946044D01*
G01X4686300Y-3104794D01*
G01X960305Y-4418589D02*
G01X969201Y-4409694D01*
G01X960305Y-5104003D02*
G01X960305Y-4418589D01*
G01X960305Y-5563997D02*
G01X960305Y-5830697D01*
G01X1011250Y-5881642D01*
G01X960305Y-5104003D02*
G01X1128903Y-5104003D01*
G01X1211250Y-5186350D01*
G01X1017598Y-6932602D02*
G01X1016000Y-6934200D01*
G01X1017598Y-6644000D02*
G01X1017598Y-6932602D01*
G01X1011250Y-5881642D02*
G01X1011250Y-6494450D01*
G01X1217597Y-6923103D02*
G01X1206500Y-6934200D01*
G01X1217597Y-6644000D02*
G01X1217597Y-6923103D01*
G01X3093756Y-6598651D02*
G01X3093756Y-5732856D01*
G01X4102758Y-4205046D02*
G01X3533861Y-4205046D01*
G01X3368761Y-4370146D01*
G01X3365805Y-5585800D02*
G01X3368761Y-5582844D01*
G01X3353105Y-6197600D02*
G01X3365805Y-6184900D01*
G01X3365805Y-5585800D01*
G01X3353105Y-6197600D02*
G01X3835400Y-6197600D01*
G01X3860800Y-6172200D01*
G01X4572000Y-5676900D02*
G01X4076700Y-6172200D01*
G01X3860800Y-6172200D01*
G01X3391205Y-6896100D02*
G01X3093756Y-6598651D01*
G01X3391205Y-7175500D02*
G01X3391205Y-6896100D01*
G01X2493757Y-5732856D02*
G01X2363909Y-5862704D01*
G01X1674696Y-5862704D01*
G01X1278004Y-6862696D02*
G01X1678104Y-6862696D01*
G01X1217597Y-6923103D02*
G01X1278004Y-6862696D01*
G01X1211250Y-5186350D02*
G01X1211250Y-6494450D01*
G04 Track End*

M02*

