G04 Layer: TopSolderMaskLayer*
G04 EasyEDA Pro v2.2.47.7, 2026-10-04 13:33:00*
G04 Gerber Generator version 0.3*
G04 Scale: 100 percent, Rotated: No, Reflected: No*
G04 Dimensions in millimeters*
G04 Leading zeros omitted, absolute positions, 4 integers and 5 decimals*
G04 Generated by one-click*
G04 Object Configs: Pad,Via,Track,Text,Image,Dimension,BoardOutline,BoardCutout,CopperFilled,SolidRegion,FPCStiffener,Line,PlaneZone,ComponentProperty,ComponentSilkscreen,TearDrop*
G04 Layer Configs: 1,2,3,4,5,6,7,8,9,10,11,13,14,56*
G04 Copper Areas: 0*
%FSLAX45Y45*%
%MOMM*%
%AMRoundRect*1,1,$1,$2,$3*1,1,$1,$4,$5*1,1,$1,0-$2,0-$3*1,1,$1,0-$4,0-$5*20,1,$1,$2,$3,$4,$5,0*20,1,$1,$4,$5,0-$2,0-$3,0*20,1,$1,0-$2,0-$3,0-$4,0-$5,0*20,1,$1,0-$4,0-$5,$2,$3,0*4,1,4,$2,$3,$4,$5,0-$2,0-$3,0-$4,0-$5,$2,$3,0*%
%ADD10C,1.6256*%
%ADD11C,1.20002*%
%ADD12O,2.6016X2.1016*%
%ADD13RoundRect,0.09691X-1.25234X-1.00234X-1.25234X1.00234*%
%ADD14C,1.7016*%
%ADD15RoundRect,0.09167X-0.75417X0.50417X0.75417X0.50417*%
%ADD16RoundRect,0.09167X-0.50417X-0.75417X-0.50417X0.75417*%
%ADD17C,1.9016*%
%ADD18RoundRect,0.1057X-0.90257X-0.90257X-0.90257X0.90257*%
%ADD19RoundRect,0.09645X-0.90257X-0.90257X-0.90257X0.90257*%
%ADD20RoundRect,0.09368X-1.25396X0.55396X1.25396X0.55396*%
%ADD21RoundRect,0.09754X-1.17203X1.80203X1.17203X1.80203*%
%ADD22C,1.3*%
%ADD23RoundRect,0.09588X-0.80286X-0.80286X-0.80286X0.80286*%
%ADD24RoundRect,0.09302X-0.50429X1.75429X0.50429X1.75429*%
%ADD25RoundRect,0.09554X-0.75303X1.70303X0.75303X1.70303*%
G75*


G04 Pad Start*
G54D10*
G01X1206500Y-6934200D03*
G01X1016000Y-6934200D03*
G01X1674696Y-5862704D03*
G01X1678104Y-6862696D03*
G54D11*
G01X1004900Y-6057900D03*
G01X1204900Y-6057900D03*
G01X1219200Y-3811600D03*
G01X1219200Y-4011600D03*
G54D12*
G01X3860800Y-6426200D03*
G01X3860800Y-6172200D03*
G54D13*
G01X3860800Y-6680200D03*
G54D14*
G01X1358900Y-3124505D03*
G01X1358900Y-1574495D03*
G01X1841195Y-7175500D03*
G01X3391205Y-7175500D03*
G01X3353105Y-6197600D03*
G01X1803095Y-6197600D03*
G01X2387600Y-3124505D03*
G01X2387600Y-1574495D03*
G01X2882900Y-3124505D03*
G01X2882900Y-1574495D03*
G01X3378200Y-3124505D03*
G01X3378200Y-1574495D03*
G01X3822700Y-4063695D03*
G01X3822700Y-5613705D03*
G01X1879600Y-3124505D03*
G01X1879600Y-1574495D03*
G54D15*
G01X1818752Y-4182847D03*
G01X1818752Y-4382846D03*
G01X1818752Y-4582846D03*
G01X1818752Y-4782845D03*
G01X1818752Y-4982845D03*
G01X1818752Y-5182845D03*
G01X1818752Y-5382844D03*
G01X1818752Y-5582844D03*
G54D16*
G01X2093758Y-5732856D03*
G01X2293757Y-5732856D03*
G01X2493757Y-5732856D03*
G01X2693756Y-5732856D03*
G01X2893756Y-5732856D03*
G01X3093756Y-5732856D03*
G54D15*
G01X3368761Y-5582844D03*
G01X3368761Y-5382844D03*
G01X3368761Y-5182845D03*
G01X3368761Y-4982845D03*
G01X3368761Y-4782845D03*
G01X3368761Y-4582846D03*
G01X3368761Y-4382846D03*
G01X3368761Y-4182847D03*
G54D17*
G01X4572000Y-5676900D03*
G54D19*
G01X4572000Y-5422900D03*
G54D14*
G01X4060698Y-2313800D03*
G01X4600702Y-2313800D03*
G01X4060698Y-2613800D03*
G01X4600702Y-2613800D03*
G01X4600702Y-1902600D03*
G01X4060698Y-1902600D03*
G01X4600702Y-1602600D03*
G01X4060698Y-1602600D03*
G54D20*
G01X960305Y-5104003D03*
G01X960305Y-5334000D03*
G01X960305Y-5563997D03*
G54D21*
G01X1554297Y-5334000D03*
G54D22*
G01X969201Y-4409694D03*
G01X1469200Y-4759706D03*
G54D17*
G01X4686300Y-3104794D03*
G01X4686297Y-3354807D03*
G01X4686300Y-3604793D03*
G54D19*
G01X4686300Y-3854806D03*
G54D14*
G01X4114803Y-2959105D03*
G01X4114803Y-3213105D03*
G01X4114803Y-3467105D03*
G01X4114803Y-3721105D03*
G54D23*
G01X4114803Y-3975105D03*
G54D24*
G01X1217597Y-6644000D03*
G01X1017598Y-6644000D03*
G54D25*
G01X782599Y-7199000D03*
G01X1452598Y-7199000D03*
G04 Pad End*

M02*

