;TYPE=PLATED
;Layer: PTH_Through
;EasyEDA Pro Client v2.2.47.7, 2026-10-04 13:33:00
;Gerber Generator version 0.3
M48
METRIC,LZ,0000.00000
;Hole size 1 = 0.30500 METRIC
T01C0.30500
;Hole size 2 = 0.70002 METRIC
T02C0.70002
;Hole size 3 = 0.80000 METRIC
T03C0.80000
;Hole size 4 = 0.91440 METRIC
T04C0.91440
;Hole size 5 = 1.00000 METRIC
T05C1.00000
;Hole size 6 = 1.02001 METRIC
T06C1.02001
;Hole size 7 = 1.10002 METRIC
T07C1.10002
;Hole size 8 = 1.40000 METRIC
T08C1.40000
%
G05
G90
T01
X36.60861Y-43.79646
X41.02758Y-42.05046
T02
X10.049Y-60.579
X12.049Y-60.579
X12.192Y-38.116
X12.192Y-40.116
T03
X9.69201Y-44.09702
X14.69199Y-47.59701
T04
X12.065Y-69.342
X10.16Y-69.342
X16.74696Y-58.62704
X16.78104Y-68.62696
T05
X40.60706Y-23.13788
X46.00694Y-23.13788
X40.60706Y-26.13787
X46.00694Y-26.13787
X46.00694Y-19.02612
X40.60706Y-19.02612
X46.00694Y-16.02613
X40.60706Y-16.02613
X46.86297Y-31.04792
X46.86295Y-33.54791
X46.86297Y-36.04793
X46.86297Y-38.54793
T06
X41.148Y-29.591
X41.148Y-32.131
X41.148Y-34.671
X41.148Y-37.211
X41.148Y-39.751
T07
X13.589Y-31.245
X13.589Y-15.745
X18.412Y-71.755
X33.912Y-71.755
X33.531Y-61.976
X18.031Y-61.976
X23.876Y-31.245
X23.876Y-15.745
X28.829Y-31.245
X28.829Y-15.745
X33.782Y-31.245
X33.782Y-15.745
X38.227Y-40.637
X38.227Y-56.137
X18.796Y-31.245
X18.796Y-15.745
X45.72Y-56.769
X45.72Y-54.229
T08
X38.60797Y-64.26203
X38.60797Y-61.72203
X38.60797Y-66.80203
M30