G04 Layer: DrillDrawingLayer*
G04 EasyEDA Pro v2.2.47.7, 2026-10-04 13:33:00*
G04 Gerber Generator version 0.3*
G04 Scale: 100 percent, Rotated: No, Reflected: No*
G04 Dimensions in millimeters*
G04 Leading zeros omitted, absolute positions, 4 integers and 5 decimals*
G04 Generated by one-click*
G04 Object Configs: Pad,Via,Track,Text,Image,Dimension,BoardOutline,BoardCutout,CopperFilled,SolidRegion,FPCStiffener,Line,PlaneZone,ComponentProperty,ComponentSilkscreen,TearDrop*
G04 Layer Configs: 1,2,3,4,5,6,7,8,9,10,11,13,14,56*
G04 Copper Areas: 0*
%FSLAX45Y45*%
%MOMM*%
%AMIconRect*4,1,4,0.28,-0.28,-0.28,-0.28,-0.28,0.28,0.28,0.28,0.28,-0.28,0*4,0,4,0.233333,-0.233333,0.233333,0.233333,-0.233333,0.233333,-0.233333,-0.233333,0.233333,-0.233333,0*%
%AMIconTriangle*4,1,3,-0.339593,0.240473,0.339593,0.240473,0,-0.37884,-0.339593,0.240473,0*4,0,3,-0.265673,0.19404,0,-0.27342,0.266233,0.19404,-0.265673,0.19404,0*%
%AMIconStar6*4,1,12,0.12068,0.20888,0.298527,0.172713,0.241313,0,0.298527,-0.17206,0.12068,-0.208227,0,-0.344073,-0.120073,-0.208227,-0.298573,-0.17206,-0.240707,0,-0.298573,0.17206,-0.120073,0.20888,0,0.344073,0.12068,0.20888,0*4,0,12,-0.000467,0.273467,-0.090067,0.171733,-0.237533,0.136733,-0.193667,-0.007467,-0.237533,-0.1372,-0.090067,-0.171733,-0.000467,-0.273933,0.090067,-0.171733,0.237533,-0.1372,0.194133,0.007,0.237533,0.1372,0.090067,0.171267,-0.000467,0.273467,0*%
%AMIconStar4*4,1,8,-0.311733,0.311733,0,0.202533,0.311733,0.311733,0.202533,0,0.311733,-0.311733,0,-0.202533,-0.304407,-0.311733,-0.202533,0,-0.311733,0.311733,0*4,0,8,0.233333,-0.233333,0.1512,0,0.233333,0.233333,0,0.1512,-0.233333,0.233333,-0.1512,0,-0.233333,-0.233333,0,-0.1512,0.233333,-0.233333,0*%
%AMIconPlus*4,1,12,0.1736,-0.28,-0.1736,-0.28,-0.1736,-0.1736,-0.28,-0.1736,-0.28,0.1736,-0.1736,0.1736,-0.1736,0.28,0.1736,0.28,0.1736,0.1736,0.28,0.1736,0.28,-0.1736,0.1736,-0.1736,0.1736,-0.28,0*4,0,12,0.126933,-0.233333,0.126933,-0.126933,0.233333,-0.126933,0.233333,0.126933,0.126933,0.126933,0.126933,0.233333,-0.126933,0.233333,-0.126933,0.126933,-0.233333,0.126933,-0.233333,-0.126933,-0.126933,-0.126933,-0.126933,-0.233333,0.126933,-0.233333,0*%
%AMIconX*4,1,16,0.28,-0.28,0.076347,-0.28,0,-0.203653,-0.076347,-0.28,-0.28,-0.28,-0.28,-0.076347,-0.203653,0,-0.28,0.076347,-0.28,0.28,-0.076347,0.28,0,0.203653,0.076347,0.28,0.28,0.28,0.28,0.076347,0.203653,0,0.28,-0.076347,0.28,-0.28,0*4,0,16,0.23352,-0.23296,0.23352,-0.095853,0.137107,0.000093,0.23352,0.095853,0.23352,0.2331,0.095853,0.2331,0,0.137107,-0.095853,0.2331,-0.23352,0.2331,-0.23352,0.095853,-0.137107,0.000093,-0.23352,-0.095853,-0.23352,-0.23296,-0.095853,-0.23296,0,-0.137107,0.095853,-0.23296,0.23352,-0.23296,0*%
%AMIconDiamond*4,1,4,0,-0.364,-0.364,0,0,0.364,0.364,0,0,-0.364,0*4,0,4,0,-0.284807,0.284807,0,0,0.28504,-0.284807,0,0,-0.284807,0*%
%ADD10IconRect*%
%ADD11C,0.616X0.522667*%
%ADD12IconTriangle*%
%ADD13IconStar6*%
%ADD14IconStar4*%
%ADD15IconPlus*%
%ADD16IconX*%
%ADD17IconDiamond*%
G75*


G04 Drill Drawing Start*
G54D10*
G01X3660861Y-4379646D03*
G01X4102758Y-4205046D03*
G54D11*
G01X969201Y-4409694D03*
G01X1469200Y-4759706D03*
G54D12*
G01X3860800Y-6680200D03*
G01X3860800Y-6426200D03*
G01X3860800Y-6172200D03*
G54D13*
G01X1016000Y-6934200D03*
G01X1206500Y-6934200D03*
G01X1674696Y-5862704D03*
G01X1678104Y-6862696D03*
G54D14*
G01X1004900Y-6057900D03*
G01X1204900Y-6057900D03*
G01X1219200Y-4011600D03*
G01X1219200Y-3811600D03*
G54D15*
G01X4114803Y-3975105D03*
G01X4114803Y-3721105D03*
G01X4114803Y-3467105D03*
G01X4114803Y-3213105D03*
G01X4114803Y-2959105D03*
G54D16*
G01X4060698Y-2613800D03*
G01X4060698Y-2313800D03*
G01X4060698Y-1902600D03*
G01X4060698Y-1602600D03*
G01X4600702Y-2613800D03*
G01X4600702Y-2313800D03*
G01X4600702Y-1902600D03*
G01X4600702Y-1602600D03*
G01X4686297Y-3354807D03*
G01X4686300Y-3854806D03*
G01X4686300Y-3604793D03*
G01X4686300Y-3104794D03*
G54D17*
G01X1358900Y-3124505D03*
G01X1358900Y-1574495D03*
G01X1803095Y-6197600D03*
G01X1841195Y-7175500D03*
G01X1879600Y-3124505D03*
G01X1879600Y-1574495D03*
G01X2387600Y-3124505D03*
G01X2387600Y-1574495D03*
G01X2882900Y-3124505D03*
G01X2882900Y-1574495D03*
G01X3353105Y-6197600D03*
G01X3378200Y-3124505D03*
G01X3378200Y-1574495D03*
G01X3391205Y-7175500D03*
G01X3822700Y-5613705D03*
G01X3822700Y-4063695D03*
G01X4572000Y-5676900D03*
G01X4572000Y-5422900D03*
G04 Drill Drawing End*

M02*

