G04 Layer: BottomLayer*
G04 EasyEDA Pro v2.2.47.7, 2026-10-04 13:33:00*
G04 Gerber Generator version 0.3*
G04 Scale: 100 percent, Rotated: No, Reflected: No*
G04 Dimensions in millimeters*
G04 Leading zeros omitted, absolute positions, 4 integers and 5 decimals*
G04 Generated by one-click*
G04 Object Configs: Pad,Via,Track,Text,Image,Dimension,BoardOutline,BoardCutout,CopperFilled,SolidRegion,FPCStiffener,Line,PlaneZone,ComponentProperty,ComponentSilkscreen,TearDrop*
G04 Layer Configs: 1,2,3,4,5,6,7,8,9,10,11,13,14,56*
G04 Copper Areas: 0*
%FSLAX45Y45*%
%MOMM*%
%ADD10C,1.524*%
%ADD11C,1.1*%
%ADD12O,2.49999X2.0*%
%ADD13R,2.49999X2.0*%
%ADD14C,1.6*%
%ADD15C,1.8*%
%ADD16R,1.8X1.8*%
%ADD17C,1.2066*%
%ADD18C,1.2*%
%ADD19R,1.6X1.6*%
%ADD20C,0.61*%
%ADD21C,0.254*%
G75*


G04 Pad Start*
G54D10*
G01X1206500Y-6934200D03*
G01X1016000Y-6934200D03*
G01X1674696Y-5862704D03*
G01X1678104Y-6862696D03*
G54D11*
G01X1004900Y-6057900D03*
G01X1204900Y-6057900D03*
G01X1219200Y-3811600D03*
G01X1219200Y-4011600D03*
G54D12*
G01X3860800Y-6426200D03*
G01X3860800Y-6172200D03*
G54D13*
G01X3860800Y-6680200D03*
G54D14*
G01X1358900Y-3124505D03*
G01X1358900Y-1574495D03*
G01X1841195Y-7175500D03*
G01X3391205Y-7175500D03*
G01X3353105Y-6197600D03*
G01X1803095Y-6197600D03*
G01X2387600Y-3124505D03*
G01X2387600Y-1574495D03*
G01X2882900Y-3124505D03*
G01X2882900Y-1574495D03*
G01X3378200Y-3124505D03*
G01X3378200Y-1574495D03*
G01X3822700Y-4063695D03*
G01X3822700Y-5613705D03*
G01X1879600Y-3124505D03*
G01X1879600Y-1574495D03*
G54D15*
G01X4572000Y-5676900D03*
G54D16*
G01X4572000Y-5422900D03*
G54D14*
G01X4060698Y-2313800D03*
G01X4600702Y-2313800D03*
G01X4060698Y-2613800D03*
G01X4600702Y-2613800D03*
G01X4600702Y-1902600D03*
G01X4060698Y-1902600D03*
G01X4600702Y-1602600D03*
G01X4060698Y-1602600D03*
G54D18*
G01X969201Y-4409694D03*
G01X1469200Y-4759706D03*
G54D15*
G01X4686300Y-3104794D03*
G01X4686297Y-3354807D03*
G01X4686300Y-3604793D03*
G54D16*
G01X4686300Y-3854806D03*
G54D14*
G01X4114803Y-2959105D03*
G01X4114803Y-3213105D03*
G01X4114803Y-3467105D03*
G01X4114803Y-3721105D03*
G54D19*
G01X4114803Y-3975105D03*
G04 Pad End*

G04 Via Start*
G54D20*
G01X3660861Y-4379646D03*
G01X4102758Y-4205046D03*
G04 Via End*

G04 Track Start*
G54D21*
G01X4060698Y-1902600D02*
G01X4600702Y-1902600D01*
G01X4686300Y-3104794D02*
G01X4686300Y-3149608D01*
G01X4114803Y-3721105D01*
G01X3353105Y-6197600D02*
G01X3223743Y-6068238D01*
G01X4102100Y-4012895D02*
G01X4102100Y-3987495D01*
G01X4114803Y-3213105D02*
G01X4597403Y-2730505D01*
G01X4597403Y-2628905D01*
G01X4600702Y-2613800D01*
G01X4597403Y-2628905D02*
G01X4724403Y-2501905D01*
G01X4724403Y-1726301D01*
G01X4600702Y-1602600D01*
G01X4547258Y-3747846D02*
G01X4547258Y-3493846D01*
G01X4686297Y-3354807D01*
G01X1879600Y-3124505D02*
G01X1879600Y-2616200D01*
G01X2593200Y-1902600D01*
G01X4060698Y-1902600D01*
G01X4102100Y-3987495D02*
G01X3937000Y-3822395D01*
G01X3937000Y-3390908D01*
G01X4114803Y-3213105D01*
G01X3660861Y-4379646D02*
G01X3660861Y-2713637D01*
G01X4060698Y-2313800D01*
G01X1215238Y-6068238D02*
G01X1204900Y-6057900D01*
G01X3223743Y-6068238D02*
G01X1215238Y-6068238D01*
G01X4572000Y-5676900D02*
G01X3873500Y-4978400D01*
G01X3873500Y-4241495D02*
G01X4102100Y-4012895D01*
G01X3873500Y-4978400D02*
G01X3873500Y-4241495D01*
G01X1841195Y-6235700D02*
G01X1803095Y-6197600D01*
G01X1993900Y-6553200D02*
G01X1841195Y-6705905D01*
G01X1841195Y-6235700D01*
G01X3860800Y-6680200D02*
G01X3733800Y-6553200D01*
G01X1993900Y-6553200D01*
G01X4102758Y-4205046D02*
G01X4102758Y-4192346D01*
G01X4547258Y-3747846D01*
G01X1841195Y-6705905D02*
G01X1841195Y-7175500D01*
G04 Track End*

M02*

